sfk_cyclingleg_states
version=1
nRows=6
nColumns=53
inDegrees=yes

# SIMM Motion File Header:
name sfk_cyclingleg_states
datacolumns 53
datarows 6
otherdata 1
range 0.24073385 0.24142893
endheader
time	/jointset/bb/crank_angle/value	/jointset/bb/crank_angle/speed	/jointset/spindle/pedal_angle_r/value	/jointset/spindle/pedal_angle_r/speed	/jointset/ground_pelvis/pelvis_tilt/value	/jointset/ground_pelvis/pelvis_tilt/speed	/jointset/ground_pelvis/pelvis_list/value	/jointset/ground_pelvis/pelvis_list/speed	/jointset/ground_pelvis/pelvis_rotation/value	/jointset/ground_pelvis/pelvis_rotation/speed	/jointset/ground_pelvis/pelvis_tx/value	/jointset/ground_pelvis/pelvis_tx/speed	/jointset/ground_pelvis/pelvis_ty/value	/jointset/ground_pelvis/pelvis_ty/speed	/jointset/ground_pelvis/pelvis_tz/value	/jointset/ground_pelvis/pelvis_tz/speed	/jointset/hip_r/hip_angle_r/value	/jointset/hip_r/hip_angle_r/speed	/jointset/hip_r/hip_adduction_r/value	/jointset/hip_r/hip_adduction_r/speed	/jointset/hip_r/hip_rotation_r/value	/jointset/hip_r/hip_rotation_r/speed	/jointset/knee_r/knee_angle_r/value	/jointset/knee_r/knee_angle_r/speed	/jointset/knee_r/tib_tx_r/value	/jointset/knee_r/tib_tx_r/speed	/jointset/knee_r/tib_ty_r/value	/jointset/knee_r/tib_ty_r/speed	/jointset/tib_pat_r/pat_angle_r/value	/jointset/tib_pat_r/pat_angle_r/speed	/jointset/tib_pat_r/pat_tx_r/value	/jointset/tib_pat_r/pat_tx_r/speed	/jointset/tib_pat_r/pat_ty_r/value	/jointset/tib_pat_r/pat_ty_r/speed	/jointset/ankle_r/ankle_angle_r/value	/jointset/ankle_r/ankle_angle_r/speed	/jointset/subtalar_r/subtalar_angle_r/value	/jointset/subtalar_r/subtalar_angle_r/speed	/jointset/mtp_r/mtp_angle_r/value	/jointset/mtp_r/mtp_angle_r/speed	/forceset/bifemlh_r/activation	/forceset/bifemlh_r/fiber_length	/forceset/bifemsh_r/activation	/forceset/bifemsh_r/fiber_length	/forceset/glut_max2_r/activation	/forceset/glut_max2_r/fiber_length	/forceset/vas_int_r/activation	/forceset/vas_int_r/fiber_length	/forceset/med_gas_r/activation	/forceset/med_gas_r/fiber_length	/forceset/tib_ant_r/activation	/forceset/tib_ant_r/fiber_length
      0.24073385	   -125.72050137	   -480.13863232	    138.37072407	    551.07929197	      0.00000000	      0.00000000	     -0.00000000	     -0.00000000	     -0.00000000	     -0.00000000	      0.00000000	      0.00000000	      0.00000000	      0.00000000	      0.00000000	      0.00000000	     46.41963006	   -217.99449042	      4.38205103	     -0.29355246	      1.10477078	     22.36758833	    -55.72514405	    262.65972198	      0.00446794	     -0.02449208	     -0.47468077	      0.07718528	     17.29032358	     -7.80775253	      0.04406259	      0.07557012	     -0.02308205	     -0.00979568	     22.36897446	     25.92403150	      0.00000000	     -0.00000000	     -0.00000000	     -0.00000000	     -0.00555237	      0.12747399	     -0.00555237	      0.16854839	     -0.00555237	      0.13569738	     -0.00555237	      0.12651855	     -0.00555237	      0.14742764	     -0.00555237	      0.11633262
      0.24087320	   -125.78740655	   -480.13863232	    138.44751083	    551.02637248	      0.00000000	      0.00000000	     -0.00000000	     -0.00000000	     -0.00000000	     -0.00000000	      0.00000000	      0.00000000	      0.00000000	      0.00000000	      0.00000000	      0.00000000	     46.38925649	   -217.95154886	      4.38200999	     -0.29543988	      1.10788736	     22.36409554	    -55.68855433	    262.50544767	      0.00446453	     -0.02453087	     -0.47467002	      0.07711147	     17.28923433	     -7.82601463	      0.04407311	      0.07550591	     -0.02308341	     -0.00979186	     22.37259102	     25.98375520	      0.00000000	     -0.00000000	     -0.00000000	     -0.00000000	     -0.00557031	      0.12746164	     -0.00557031	      0.16856935	     -0.00557031	      0.13567539	     -0.00557031	      0.12649158	     -0.00557031	      0.14744240	     -0.00557031	      0.11632960
      0.24101183	   -125.85397123	   -480.13863232	    138.52389947	    550.97342657	      0.00000000	      0.00000000	     -0.00000000	     -0.00000000	     -0.00000000	     -0.00000000	      0.00000000	      0.00000000	      0.00000000	      0.00000000	      0.00000000	      0.00000000	     46.35904346	   -217.90843760	      4.38196890	     -0.29731339	      1.11098759	     22.36057930	    -55.65217220	    262.35136700	      0.00446112	     -0.02456922	     -0.47465933	      0.07703789	     17.28814811	     -7.84416033	      0.04408358	      0.07544189	     -0.02308477	     -0.00978804	     22.37619743	     26.04308228	      0.00000000	     -0.00000000	     -0.00000000	     -0.00000000	     -0.00558816	      0.12744934	     -0.00558816	      0.16859019	     -0.00558816	      0.13565352	     -0.00558816	      0.12646475	     -0.00558816	      0.14745365	     -0.00558816	      0.11632658
      0.24115115	   -125.92086023	   -480.13863232	    138.60065287	    550.91992370	      0.00000000	      0.00000000	     -0.00000000	     -0.00000000	     -0.00000000	     -0.00000000	      0.00000000	      0.00000000	      0.00000000	      0.00000000	      0.00000000	      0.00000000	     46.32868927	   -217.86472499	      4.38192735	     -0.29919169	      1.11410244	     22.35700421	    -55.61563436	    262.19593905	      0.00445770	     -0.02460751	     -0.47464861	      0.07696379	     17.28705405	     -7.86237049	      0.04409408	      0.07537741	     -0.02308613	     -0.00978419	     22.37982968	     26.10260447	      0.00000000	     -0.00000000	     -0.00000000	     -0.00000000	     -0.00560609	      0.12743698	     -0.00560609	      0.16861112	     -0.00560609	      0.13563154	     -0.00560609	      0.12643780	     -0.00560609	      0.14746838	     -0.00560609	      0.11632354
      0.24128965	   -125.98736190	   -480.13863232	    138.67695441	    550.86643162	      0.00000000	      0.00000000	     -0.00000000	     -0.00000000	     -0.00000000	     -0.00000000	      0.00000000	      0.00000000	      0.00000000	      0.00000000	      0.00000000	      0.00000000	     46.29851692	   -217.82087544	      4.38188579	     -0.30105478	      1.11719875	     22.35340805	    -55.57932962	    262.04081604	      0.00445429	     -0.02464534	     -0.47463795	      0.07688998	     17.28596382	     -7.88045104	      0.04410452	      0.07531316	     -0.02308749	     -0.00978034	     22.38344912	     26.16168779	      0.00000000	     -0.00000000	     -0.00000000	     -0.00000000	     -0.00562392	      0.12742467	     -0.00562392	      0.16863192	     -0.00562392	      0.13560968	     -0.00562392	      0.12641102	     -0.00562392	      0.14747962	     -0.00562392	      0.11632051
      0.24142893	   -126.05423267	   -480.13863232	    138.75367196	    550.81234011	      0.00000000	      0.00000000	     -0.00000000	     -0.00000000	     -0.00000000	     -0.00000000	      0.00000000	      0.00000000	      0.00000000	      0.00000000	      0.00000000	      0.00000000	     46.26818325	   -217.77638910	      4.38184373	     -0.30292383	      1.12031174	     22.34974965	    -55.54284507	    261.88423143	      0.00445085	     -0.02468313	     -0.47462725	      0.07681559	     17.28486502	     -7.89860727	      0.04411500	      0.07524841	     -0.02308885	     -0.00977646	     22.38709689	     26.22100349	      0.00000000	     -0.00000000	     -0.00000000	     -0.00000000	     -0.00564186	      0.12741228	     -0.00564186	      0.16865283	     -0.00564186	      0.13558769	     -0.00564186	      0.12638409	     -0.00564186	      0.14749431	     -0.00564186	      0.11631746
